<?xml version="1.0" encoding="utf-8"?>
<!-- Generator: Adobe Illustrator 25.0.0, SVG Export Plug-In . SVG Version: 6.00 Build 0)  -->
<svg version="1.1" id="Layer_1" xmlns="http://www.w3.org/2000/svg" xmlns:xlink="http://www.w3.org/1999/xlink" x="0px" y="0px"
	 viewBox="0 0 737.3 157.9" style="enable-background:new 0 0 737.3 157.9;" xml:space="preserve">
<style type="text/css">
	.st0{fill:#C83233;}
	.st1{fill:#578E40;}
	.st2{fill:#FDCD40;}
	.st3{fill:#FF9700;}
	.st4{fill:#1D62AB;}
	.st5{fill:#32591F;}
	.st6{fill:#0B457A;}
</style>
<g>
	<g>
		<path d="M47.5,28.1c25.1,0,39.6,14.5,39.6,34c0,13.1-8.2,23.8-18.6,27.2C80,92,91.1,102.6,91.1,119c0,20.8-15.8,36-39.8,36H0V28
			L47.5,28.1L47.5,28.1z M43,79c9.9,0,16.3-5.2,16.3-13.8c0-8.2-5.6-13.6-16.7-13.6h-15V79H43z M45.3,132c10.9,0,17.6-5.7,17.6-14.9
			c0-8.8-6.4-14.9-17.6-14.9H27.6v29.7L45.3,132L45.3,132z"/>
		<path d="M128.5,155.1v-127h28.7v127H128.5z"/>
	</g>
	<g>
		<path d="M476.4,109.3V28.2h28.3v78.7c0,15.4,8.6,23.1,22,23.1s22-7.7,22-23.1V28.1H577v81.1c0,31.9-22.4,48.7-50.3,48.7
			C498.8,158,476.4,141.2,476.4,109.3z"/>
		<path d="M714.1,155.1l-1.8-12.9c-5.6,8.1-17.6,15.6-35.6,15.6c-35.3,0-64.3-26-64.3-66.1c0-39.9,30.3-66.3,66.1-66.3
			c36.4,0,53.2,21.5,58.8,39.2l-27.2,9.5c-2-7.9-10.4-22.2-31.5-22.2c-17.2,0-37.4,11.5-37.4,39.8c0,26.5,17.6,40.3,38.2,40.3
			c21,0,29.7-13.6,31.3-20.8h-38.2v-24h64.7v67.9L714.1,155.1L714.1,155.1z"/>
	</g>
	<g>
		<g>
			<polygon class="st0" points="205.6,-0.2 168.6,-0.2 237.1,155.1 237.6,155.1 255.2,112.2 			"/>
		</g>
		<polygon class="st1" points="433.6,-0.2 384,112.1 401.6,155.1 402,155.1 470.5,-0.2 		"/>
		<polygon class="st2" points="255.2,112.2 274.1,155.1 274.6,155.1 319.6,45.2 301.1,0 		"/>
		<polygon class="st2" points="338.2,-0.2 338,-0.2 338.1,0 		"/>
		<polygon class="st3" points="237.6,155.1 274.1,155.1 255.2,112.2 		"/>
		<polygon class="st4" points="338.1,0 319.6,45.2 364.6,155.1 365,155.1 384,112.1 		"/>
		<polygon class="st4" points="301,-0.2 301.1,0 301.2,-0.2 		"/>
		<polygon class="st5" points="365,155.1 401.6,155.1 384,112.1 		"/>
		<polygon class="st6" points="338,-0.2 301.2,-0.2 301.1,0 319.6,45.2 338.1,0 		"/>
	</g>
</g>
</svg>
